<?xml version="1.0" encoding="UTF-8" standalone="no"?>
<!DOCTYPE svg PUBLIC "-//W3C//DTD SVG 1.1//EN"
 "http://www.w3.org/Graphics/SVG/1.1/DTD/svg11.dtd">
<!-- Generated by graphviz version 2.47.3 (20210619.1520)
 -->
<!-- Title: dependencies Pages: 1 -->
<svg width="372pt" height="247pt"
 viewBox="0.00 0.00 372.00 246.80" xmlns="http://www.w3.org/2000/svg" xmlns:xlink="http://www.w3.org/1999/xlink">
<g id="graph0" class="graph" transform="scale(1 1) rotate(0) translate(4 242.8)">
<title>dependencies</title>
<polygon fill="white" stroke="transparent" points="-4,4 -4,-242.8 368,-242.8 368,4 -4,4"/>
<text text-anchor="middle" x="182" y="-8.2" font-family="sans-serif" font-size="14.00">dependencies</text>
<g id="clust1" class="cluster">
<title>cluster_AccountsModule</title>
<polygon fill="none" stroke="black" stroke-dasharray="1,5" points="8,-32.8 8,-230.8 356,-230.8 356,-32.8 8,-32.8"/>
</g>
<g id="clust6" class="cluster">
<title>cluster_AccountsModule_providers</title>
<polygon fill="none" stroke="black" points="180,-40.8 180,-92.8 348,-92.8 348,-40.8 180,-40.8"/>
</g>
<g id="clust4" class="cluster">
<title>cluster_AccountsModule_exports</title>
<polygon fill="none" stroke="black" points="114,-170.8 114,-222.8 244,-222.8 244,-170.8 114,-170.8"/>
</g>
<g id="clust3" class="cluster">
<title>cluster_AccountsModule_imports</title>
<polygon fill="none" stroke="black" points="16,-40.8 16,-92.8 172,-92.8 172,-40.8 16,-40.8"/>
</g>
<!-- ExchangeRateModule -->
<g id="node1" class="node">
<title>ExchangeRateModule</title>
<polygon fill="#8dd3c7" stroke="black" points="164.4,-84.8 161.4,-88.8 140.4,-88.8 137.4,-84.8 23.6,-84.8 23.6,-48.8 164.4,-48.8 164.4,-84.8"/>
<text text-anchor="middle" x="94" y="-62.6" font-family="Times,serif" font-size="14.00">ExchangeRateModule</text>
</g>
<!-- AccountsModule -->
<g id="node2" class="node">
<title>AccountsModule</title>
<polygon fill="#8dd3c7" stroke="black" points="235.42,-149.8 232.42,-153.8 211.42,-153.8 208.42,-149.8 122.58,-149.8 122.58,-113.8 235.42,-113.8 235.42,-149.8"/>
<text text-anchor="middle" x="179" y="-127.6" font-family="Times,serif" font-size="14.00">AccountsModule</text>
</g>
<!-- ExchangeRateModule&#45;&gt;AccountsModule -->
<g id="edge1" class="edge">
<title>ExchangeRateModule&#45;&gt;AccountsModule</title>
<path fill="none" stroke="black" d="M143.5,-84.91C143.5,-84.91 143.5,-103.79 143.5,-103.79"/>
<polygon fill="black" stroke="black" points="140,-103.79 143.5,-113.79 147,-103.79 140,-103.79"/>
</g>
<!-- AccountsService  -->
<g id="node3" class="node">
<title>AccountsService </title>
<polygon fill="#fb8072" stroke="black" points="236.35,-214.8 121.65,-214.8 121.65,-178.8 236.35,-178.8 236.35,-214.8"/>
<text text-anchor="middle" x="179" y="-192.6" font-family="Times,serif" font-size="14.00">AccountsService </text>
</g>
<!-- AccountsModule&#45;&gt;AccountsService  -->
<g id="edge2" class="edge">
<title>AccountsModule&#45;&gt;AccountsService </title>
<path fill="none" stroke="black" stroke-dasharray="5,2" d="M179,-149.91C179,-149.91 179,-168.79 179,-168.79"/>
<polygon fill="black" stroke="black" points="175.5,-168.79 179,-178.79 182.5,-168.79 175.5,-168.79"/>
</g>
<!-- AccountsService -->
<g id="node4" class="node">
<title>AccountsService</title>
<ellipse fill="#fdb462" stroke="black" cx="264" cy="-66.8" rx="76.42" ry="18"/>
<text text-anchor="middle" x="264" y="-62.6" font-family="Times,serif" font-size="14.00">AccountsService</text>
</g>
<!-- AccountsService&#45;&gt;AccountsModule -->
<g id="edge3" class="edge">
<title>AccountsService&#45;&gt;AccountsModule</title>
<path fill="none" stroke="black" d="M211.37,-79.95C211.37,-79.95 211.37,-103.49 211.37,-103.49"/>
<polygon fill="black" stroke="black" points="207.87,-103.49 211.37,-113.49 214.87,-103.49 207.87,-103.49"/>
</g>
</g>
</svg>
