<?xml version="1.0" encoding="UTF-8" standalone="no"?>
<!DOCTYPE svg PUBLIC "-//W3C//DTD SVG 1.1//EN"
 "http://www.w3.org/Graphics/SVG/1.1/DTD/svg11.dtd">
<!-- Generated by graphviz version 2.47.3 (20210619.1520)
 -->
<!-- Title: dependencies Pages: 1 -->
<svg width="794pt" height="247pt"
 viewBox="0.00 0.00 794.00 246.80" xmlns="http://www.w3.org/2000/svg" xmlns:xlink="http://www.w3.org/1999/xlink">
<g id="graph0" class="graph" transform="scale(1 1) rotate(0) translate(4 242.8)">
<title>dependencies</title>
<polygon fill="white" stroke="transparent" points="-4,4 -4,-242.8 790,-242.8 790,4 -4,4"/>
<text text-anchor="middle" x="393" y="-8.2" font-family="sans-serif" font-size="14.00">dependencies</text>
<g id="clust1" class="cluster">
<title>cluster_AuthModule</title>
<polygon fill="none" stroke="black" stroke-dasharray="1,5" points="8,-32.8 8,-230.8 778,-230.8 778,-32.8 8,-32.8"/>
</g>
<g id="clust3" class="cluster">
<title>cluster_AuthModule_imports</title>
<polygon fill="none" stroke="black" points="531,-40.8 531,-92.8 770,-92.8 770,-40.8 531,-40.8"/>
</g>
<g id="clust4" class="cluster">
<title>cluster_AuthModule_exports</title>
<polygon fill="none" stroke="black" points="403,-170.8 403,-222.8 509,-222.8 509,-170.8 403,-170.8"/>
</g>
<g id="clust6" class="cluster">
<title>cluster_AuthModule_providers</title>
<polygon fill="none" stroke="black" points="16,-40.8 16,-92.8 523,-92.8 523,-40.8 16,-40.8"/>
</g>
<!-- SendGridModule -->
<g id="node1" class="node">
<title>SendGridModule</title>
<polygon fill="#8dd3c7" stroke="black" points="761.7,-84.8 758.7,-88.8 737.7,-88.8 734.7,-84.8 648.3,-84.8 648.3,-48.8 761.7,-48.8 761.7,-84.8"/>
<text text-anchor="middle" x="705" y="-62.6" font-family="Times,serif" font-size="14.00">SendGridModule</text>
</g>
<!-- AuthModule -->
<g id="node3" class="node">
<title>AuthModule</title>
<polygon fill="#8dd3c7" stroke="black" points="499.55,-149.8 496.55,-153.8 475.55,-153.8 472.55,-149.8 412.45,-149.8 412.45,-113.8 499.55,-113.8 499.55,-149.8"/>
<text text-anchor="middle" x="456" y="-127.6" font-family="Times,serif" font-size="14.00">AuthModule</text>
</g>
<!-- SendGridModule&#45;&gt;AuthModule -->
<g id="edge1" class="edge">
<title>SendGridModule&#45;&gt;AuthModule</title>
<path fill="none" stroke="black" d="M705,-85.08C705,-106.12 705,-137.8 705,-137.8 705,-137.8 509.66,-137.8 509.66,-137.8"/>
<polygon fill="black" stroke="black" points="509.66,-134.3 499.66,-137.8 509.66,-141.3 509.66,-134.3"/>
</g>
<!-- UsersModule -->
<g id="node2" class="node">
<title>UsersModule</title>
<polygon fill="#8dd3c7" stroke="black" points="630.92,-84.8 627.92,-88.8 606.92,-88.8 603.92,-84.8 539.08,-84.8 539.08,-48.8 630.92,-48.8 630.92,-84.8"/>
<text text-anchor="middle" x="585" y="-62.6" font-family="Times,serif" font-size="14.00">UsersModule</text>
</g>
<!-- UsersModule&#45;&gt;AuthModule -->
<g id="edge2" class="edge">
<title>UsersModule&#45;&gt;AuthModule</title>
<path fill="none" stroke="black" d="M585,-84.82C585,-102.17 585,-125.8 585,-125.8 585,-125.8 509.67,-125.8 509.67,-125.8"/>
<polygon fill="black" stroke="black" points="509.67,-122.3 499.67,-125.8 509.67,-129.3 509.67,-122.3"/>
</g>
<!-- AuthService  -->
<g id="node4" class="node">
<title>AuthService </title>
<polygon fill="#fb8072" stroke="black" points="500.98,-214.8 411.02,-214.8 411.02,-178.8 500.98,-178.8 500.98,-214.8"/>
<text text-anchor="middle" x="456" y="-192.6" font-family="Times,serif" font-size="14.00">AuthService </text>
</g>
<!-- AuthModule&#45;&gt;AuthService  -->
<g id="edge3" class="edge">
<title>AuthModule&#45;&gt;AuthService </title>
<path fill="none" stroke="black" stroke-dasharray="5,2" d="M456,-149.91C456,-149.91 456,-168.79 456,-168.79"/>
<polygon fill="black" stroke="black" points="452.5,-168.79 456,-178.79 459.5,-168.79 452.5,-168.79"/>
</g>
<!-- AuthService -->
<g id="node5" class="node">
<title>AuthService</title>
<ellipse fill="#fdb462" stroke="black" cx="456" cy="-66.8" rx="59.11" ry="18"/>
<text text-anchor="middle" x="456" y="-62.6" font-family="Times,serif" font-size="14.00">AuthService</text>
</g>
<!-- AuthService&#45;&gt;AuthModule -->
<g id="edge4" class="edge">
<title>AuthService&#45;&gt;AuthModule</title>
<path fill="none" stroke="black" d="M456,-84.91C456,-84.91 456,-103.79 456,-103.79"/>
<polygon fill="black" stroke="black" points="452.5,-103.79 456,-113.79 459.5,-103.79 452.5,-103.79"/>
</g>
<!-- JwtRefreshTokenStrategy -->
<g id="node6" class="node">
<title>JwtRefreshTokenStrategy</title>
<ellipse fill="#fdb462" stroke="black" cx="267" cy="-66.8" rx="111.15" ry="18"/>
<text text-anchor="middle" x="267" y="-62.6" font-family="Times,serif" font-size="14.00">JwtRefreshTokenStrategy</text>
</g>
<!-- JwtRefreshTokenStrategy&#45;&gt;AuthModule -->
<g id="edge5" class="edge">
<title>JwtRefreshTokenStrategy&#45;&gt;AuthModule</title>
<path fill="none" stroke="black" d="M267,-84.82C267,-102.17 267,-125.8 267,-125.8 267,-125.8 402.16,-125.8 402.16,-125.8"/>
<polygon fill="black" stroke="black" points="402.16,-129.3 412.16,-125.8 402.16,-122.3 402.16,-129.3"/>
</g>
<!-- JwtStrategy -->
<g id="node7" class="node">
<title>JwtStrategy</title>
<ellipse fill="#fdb462" stroke="black" cx="81" cy="-66.8" rx="56.76" ry="18"/>
<text text-anchor="middle" x="81" y="-62.6" font-family="Times,serif" font-size="14.00">JwtStrategy</text>
</g>
<!-- JwtStrategy&#45;&gt;AuthModule -->
<g id="edge6" class="edge">
<title>JwtStrategy&#45;&gt;AuthModule</title>
<path fill="none" stroke="black" d="M81,-85.08C81,-106.12 81,-137.8 81,-137.8 81,-137.8 402.25,-137.8 402.25,-137.8"/>
<polygon fill="black" stroke="black" points="402.25,-141.3 412.25,-137.8 402.25,-134.3 402.25,-141.3"/>
</g>
</g>
</svg>
