<?xml version="1.0" encoding="UTF-8" standalone="no"?>
<!DOCTYPE svg PUBLIC "-//W3C//DTD SVG 1.1//EN"
 "http://www.w3.org/Graphics/SVG/1.1/DTD/svg11.dtd">
<!-- Generated by graphviz version 2.47.3 (20210619.1520)
 -->
<!-- Title: dependencies Pages: 1 -->
<svg width="3459pt" height="337pt"
 viewBox="0.00 0.00 3459.00 336.80" xmlns="http://www.w3.org/2000/svg" xmlns:xlink="http://www.w3.org/1999/xlink">
<g id="graph0" class="graph" transform="scale(1 1) rotate(0) translate(4 332.8)">
<title>dependencies</title>
<polygon fill="white" stroke="transparent" points="-4,4 -4,-332.8 3455,-332.8 3455,4 -4,4"/>
<text text-anchor="middle" x="1725.5" y="-8.2" font-family="sans-serif" font-size="14.00">dependencies</text>
<g id="clust1" class="cluster">
<title>cluster_AccountsModule</title>
<polygon fill="none" stroke="black" stroke-dasharray="1,5" points="406,-32.8 406,-244.8 754,-244.8 754,-32.8 406,-32.8"/>
</g>
<g id="clust3" class="cluster">
<title>cluster_AccountsModule_imports</title>
<polygon fill="none" stroke="black" points="414,-40.8 414,-92.8 570,-92.8 570,-40.8 414,-40.8"/>
</g>
<g id="clust4" class="cluster">
<title>cluster_AccountsModule_exports</title>
<polygon fill="none" stroke="black" points="606,-184.8 606,-236.8 736,-236.8 736,-184.8 606,-184.8"/>
</g>
<g id="clust6" class="cluster">
<title>cluster_AccountsModule_providers</title>
<polygon fill="none" stroke="black" points="578,-40.8 578,-92.8 746,-92.8 746,-40.8 578,-40.8"/>
</g>
<g id="clust7" class="cluster">
<title>cluster_AppModule</title>
<polygon fill="none" stroke="black" stroke-dasharray="1,5" points="1567,-100.8 1567,-312.8 2073,-312.8 2073,-100.8 1567,-100.8"/>
</g>
<g id="clust9" class="cluster">
<title>cluster_AppModule_imports</title>
<polygon fill="none" stroke="black" points="1575,-108.8 1575,-236.8 2065,-236.8 2065,-108.8 1575,-108.8"/>
</g>
<g id="clust13" class="cluster">
<title>cluster_AuthModule</title>
<polygon fill="none" stroke="black" stroke-dasharray="1,5" points="762,-100.8 762,-168.8 1537,-168.8 1537,-100.8 762,-100.8"/>
</g>
<g id="clust15" class="cluster">
<title>cluster_AuthModule_imports</title>
<polygon fill="none" stroke="black" points="1399,-108.8 1399,-160.8 1529,-160.8 1529,-108.8 1399,-108.8"/>
</g>
<g id="clust16" class="cluster">
<title>cluster_AuthModule_exports</title>
<polygon fill="none" stroke="black" points="1285,-108.8 1285,-160.8 1391,-160.8 1391,-108.8 1285,-108.8"/>
</g>
<g id="clust18" class="cluster">
<title>cluster_AuthModule_providers</title>
<polygon fill="none" stroke="black" points="770,-108.8 770,-160.8 1277,-160.8 1277,-108.8 770,-108.8"/>
</g>
<g id="clust19" class="cluster">
<title>cluster_CategoriesModule</title>
<polygon fill="none" stroke="black" stroke-dasharray="1,5" points="3103,-176.8 3103,-244.8 3443,-244.8 3443,-176.8 3103,-176.8"/>
</g>
<g id="clust22" class="cluster">
<title>cluster_CategoriesModule_exports</title>
<polygon fill="none" stroke="black" points="3297,-184.8 3297,-236.8 3435,-236.8 3435,-184.8 3297,-184.8"/>
</g>
<g id="clust24" class="cluster">
<title>cluster_CategoriesModule_providers</title>
<polygon fill="none" stroke="black" points="3111,-184.8 3111,-236.8 3289,-236.8 3289,-184.8 3111,-184.8"/>
</g>
<g id="clust25" class="cluster">
<title>cluster_ConfigModule</title>
<polygon fill="none" stroke="black" stroke-dasharray="1,5" points="2081,-176.8 2081,-244.8 2371,-244.8 2371,-176.8 2081,-176.8"/>
</g>
<g id="clust28" class="cluster">
<title>cluster_ConfigModule_exports</title>
<polygon fill="none" stroke="black" points="2247,-184.8 2247,-236.8 2363,-236.8 2363,-184.8 2247,-184.8"/>
</g>
<g id="clust30" class="cluster">
<title>cluster_ConfigModule_providers</title>
<polygon fill="none" stroke="black" points="2089,-184.8 2089,-236.8 2239,-236.8 2239,-184.8 2089,-184.8"/>
</g>
<g id="clust37" class="cluster">
<title>cluster_ExchangeRateModule</title>
<polygon fill="none" stroke="black" stroke-dasharray="1,5" points="8,-100.8 8,-168.8 398,-168.8 398,-100.8 8,-100.8"/>
</g>
<g id="clust40" class="cluster">
<title>cluster_ExchangeRateModule_exports</title>
<polygon fill="none" stroke="black" points="232,-108.8 232,-160.8 390,-160.8 390,-108.8 232,-108.8"/>
</g>
<g id="clust42" class="cluster">
<title>cluster_ExchangeRateModule_providers</title>
<polygon fill="none" stroke="black" points="16,-108.8 16,-160.8 224,-160.8 224,-108.8 16,-108.8"/>
</g>
<g id="clust49" class="cluster">
<title>cluster_TransactionsModule</title>
<polygon fill="none" stroke="black" stroke-dasharray="1,5" points="2081,-252.8 2081,-320.8 2449,-320.8 2449,-252.8 2081,-252.8"/>
</g>
<g id="clust52" class="cluster">
<title>cluster_TransactionsModule_exports</title>
<polygon fill="none" stroke="black" points="2291,-260.8 2291,-312.8 2441,-312.8 2441,-260.8 2291,-260.8"/>
</g>
<g id="clust54" class="cluster">
<title>cluster_TransactionsModule_providers</title>
<polygon fill="none" stroke="black" points="2089,-260.8 2089,-312.8 2283,-312.8 2283,-260.8 2089,-260.8"/>
</g>
<g id="clust55" class="cluster">
<title>cluster_UsersModule</title>
<polygon fill="none" stroke="black" stroke-dasharray="1,5" points="2379,-176.8 2379,-244.8 3095,-244.8 3095,-176.8 2379,-176.8"/>
</g>
<g id="clust58" class="cluster">
<title>cluster_UsersModule_exports</title>
<polygon fill="none" stroke="black" points="2787,-184.8 2787,-236.8 3087,-236.8 3087,-184.8 2787,-184.8"/>
</g>
<g id="clust60" class="cluster">
<title>cluster_UsersModule_providers</title>
<polygon fill="none" stroke="black" points="2387,-184.8 2387,-236.8 2779,-236.8 2779,-184.8 2387,-184.8"/>
</g>
<!-- ExchangeRateModule -->
<g id="node1" class="node">
<title>ExchangeRateModule</title>
<polygon fill="#8dd3c7" stroke="black" points="562.4,-84.8 559.4,-88.8 538.4,-88.8 535.4,-84.8 421.6,-84.8 421.6,-48.8 562.4,-48.8 562.4,-84.8"/>
<text text-anchor="middle" x="492" y="-62.6" font-family="Times,serif" font-size="14.00">ExchangeRateModule</text>
</g>
<!-- AccountsModule -->
<g id="node2" class="node">
<title>AccountsModule</title>
<polygon fill="#8dd3c7" stroke="black" points="727.42,-152.8 724.42,-156.8 703.42,-156.8 700.42,-152.8 614.58,-152.8 614.58,-116.8 727.42,-116.8 727.42,-152.8"/>
<text text-anchor="middle" x="671" y="-130.6" font-family="Times,serif" font-size="14.00">AccountsModule</text>
</g>
<!-- ExchangeRateModule&#45;&gt;AccountsModule -->
<g id="edge1" class="edge">
<title>ExchangeRateModule&#45;&gt;AccountsModule</title>
<path fill="none" stroke="black" d="M534.12,-85.09C534.12,-107.01 534.12,-140.8 534.12,-140.8 534.12,-140.8 604.54,-140.8 604.54,-140.8"/>
<polygon fill="black" stroke="black" points="604.54,-144.3 614.54,-140.8 604.54,-137.3 604.54,-144.3"/>
</g>
<!-- TransactionsModule -->
<g id="node9" class="node">
<title>TransactionsModule</title>
<polygon fill="#8dd3c7" stroke="black" points="1819.58,-228.8 1816.58,-232.8 1795.58,-232.8 1792.58,-228.8 1688.42,-228.8 1688.42,-192.8 1819.58,-192.8 1819.58,-228.8"/>
<text text-anchor="middle" x="1754" y="-206.6" font-family="Times,serif" font-size="14.00">TransactionsModule</text>
</g>
<!-- ExchangeRateModule&#45;&gt;TransactionsModule -->
<g id="edge26" class="edge">
<title>ExchangeRateModule&#45;&gt;TransactionsModule</title>
<path fill="none" stroke="black" d="M506.04,-84.86C506.04,-113.91 506.04,-167.8 506.04,-167.8 506.04,-167.8 1699.54,-167.8 1699.54,-167.8 1699.54,-167.8 1699.54,-182.31 1699.54,-182.31"/>
<polygon fill="black" stroke="black" points="1696.04,-182.31 1699.54,-192.31 1703.04,-182.31 1696.04,-182.31"/>
</g>
<!-- AppModule -->
<g id="node11" class="node">
<title>AppModule</title>
<polygon fill="#8dd3c7" stroke="black" points="1837.66,-304.8 1834.66,-308.8 1813.66,-308.8 1810.66,-304.8 1754.34,-304.8 1754.34,-268.8 1837.66,-268.8 1837.66,-304.8"/>
<text text-anchor="middle" x="1796" y="-282.6" font-family="Times,serif" font-size="14.00">AppModule</text>
</g>
<!-- ExchangeRateModule&#45;&gt;AppModule -->
<g id="edge9" class="edge">
<title>ExchangeRateModule&#45;&gt;AppModule</title>
<path fill="none" stroke="black" d="M477.96,-84.93C477.96,-139.38 477.96,-297.8 477.96,-297.8 477.96,-297.8 1744.01,-297.8 1744.01,-297.8"/>
<polygon fill="black" stroke="black" points="1744.01,-301.3 1754.01,-297.8 1744.01,-294.3 1744.01,-301.3"/>
</g>
<!-- ExchangeRateService  -->
<g id="node21" class="node">
<title>ExchangeRateService </title>
<polygon fill="#fb8072" stroke="black" points="382.33,-152.8 239.67,-152.8 239.67,-116.8 382.33,-116.8 382.33,-152.8"/>
<text text-anchor="middle" x="311" y="-130.6" font-family="Times,serif" font-size="14.00">ExchangeRateService </text>
</g>
<!-- ExchangeRateModule&#45;&gt;ExchangeRateService  -->
<g id="edge22" class="edge">
<title>ExchangeRateModule&#45;&gt;ExchangeRateService </title>
<path fill="none" stroke="black" stroke-dasharray="5,2" d="M449.88,-85.07C449.88,-103.36 449.88,-128.8 449.88,-128.8 449.88,-128.8 392.47,-128.8 392.47,-128.8"/>
<polygon fill="black" stroke="black" points="392.47,-125.3 382.47,-128.8 392.47,-132.3 392.47,-125.3"/>
</g>
<!-- AccountsService  -->
<g id="node3" class="node">
<title>AccountsService </title>
<polygon fill="#fb8072" stroke="black" points="728.35,-228.8 613.65,-228.8 613.65,-192.8 728.35,-192.8 728.35,-228.8"/>
<text text-anchor="middle" x="671" y="-206.6" font-family="Times,serif" font-size="14.00">AccountsService </text>
</g>
<!-- AccountsModule&#45;&gt;AccountsService  -->
<g id="edge2" class="edge">
<title>AccountsModule&#45;&gt;AccountsService </title>
<path fill="none" stroke="black" stroke-dasharray="5,2" d="M652.26,-152.81C652.26,-152.81 652.26,-182.65 652.26,-182.65"/>
<polygon fill="black" stroke="black" points="648.76,-182.65 652.26,-192.65 655.76,-182.65 648.76,-182.65"/>
</g>
<!-- AccountsModule&#45;&gt;TransactionsModule -->
<g id="edge24" class="edge">
<title>AccountsModule&#45;&gt;TransactionsModule</title>
<path fill="none" stroke="black" d="M689.74,-153.01C689.74,-158.35 689.74,-162.8 689.74,-162.8 689.74,-162.8 1705.66,-162.8 1705.66,-162.8 1705.66,-162.8 1705.66,-182.65 1705.66,-182.65"/>
<polygon fill="black" stroke="black" points="1702.16,-182.65 1705.66,-192.65 1709.16,-182.65 1702.16,-182.65"/>
</g>
<!-- AccountsModule&#45;&gt;AppModule -->
<g id="edge4" class="edge">
<title>AccountsModule&#45;&gt;AppModule</title>
<path fill="none" stroke="black" d="M727.35,-134.8C744.27,-134.8 758.42,-134.8 758.42,-134.8 758.42,-134.8 758.42,-290.8 758.42,-290.8 758.42,-290.8 1744.04,-290.8 1744.04,-290.8"/>
<polygon fill="black" stroke="black" points="1744.04,-294.3 1754.04,-290.8 1744.04,-287.3 1744.04,-294.3"/>
</g>
<!-- AccountsService -->
<g id="node4" class="node">
<title>AccountsService</title>
<ellipse fill="#fdb462" stroke="black" cx="662" cy="-66.8" rx="76.42" ry="18"/>
<text text-anchor="middle" x="662" y="-62.6" font-family="Times,serif" font-size="14.00">AccountsService</text>
</g>
<!-- AccountsService&#45;&gt;AccountsModule -->
<g id="edge3" class="edge">
<title>AccountsService&#45;&gt;AccountsModule</title>
<path fill="none" stroke="black" d="M671,-85.02C671,-85.02 671,-106.53 671,-106.53"/>
<polygon fill="black" stroke="black" points="667.5,-106.53 671,-116.53 674.5,-106.53 667.5,-106.53"/>
</g>
<!-- AuthModule -->
<g id="node5" class="node">
<title>AuthModule</title>
<polygon fill="#8dd3c7" stroke="black" points="1670.55,-228.8 1667.55,-232.8 1646.55,-232.8 1643.55,-228.8 1583.45,-228.8 1583.45,-192.8 1670.55,-192.8 1670.55,-228.8"/>
<text text-anchor="middle" x="1627" y="-206.6" font-family="Times,serif" font-size="14.00">AuthModule</text>
</g>
<!-- AuthModule&#45;&gt;AppModule -->
<g id="edge5" class="edge">
<title>AuthModule&#45;&gt;AppModule</title>
<path fill="none" stroke="black" d="M1627,-228.84C1627,-250.46 1627,-283.8 1627,-283.8 1627,-283.8 1744.22,-283.8 1744.22,-283.8"/>
<polygon fill="black" stroke="black" points="1744.22,-287.3 1754.22,-283.8 1744.22,-280.3 1744.22,-287.3"/>
</g>
<!-- AuthService  -->
<g id="node13" class="node">
<title>AuthService </title>
<polygon fill="#fb8072" stroke="black" points="1382.98,-152.8 1293.02,-152.8 1293.02,-116.8 1382.98,-116.8 1382.98,-152.8"/>
<text text-anchor="middle" x="1338" y="-130.6" font-family="Times,serif" font-size="14.00">AuthService </text>
</g>
<!-- AuthModule&#45;&gt;AuthService  -->
<g id="edge14" class="edge">
<title>AuthModule&#45;&gt;AuthService </title>
<path fill="none" stroke="black" stroke-dasharray="5,2" d="M1583.42,-204.8C1502.69,-204.8 1338,-204.8 1338,-204.8 1338,-204.8 1338,-162.83 1338,-162.83"/>
<polygon fill="black" stroke="black" points="1341.5,-162.83 1338,-152.83 1334.5,-162.83 1341.5,-162.83"/>
</g>
<!-- CategoriesModule -->
<g id="node6" class="node">
<title>CategoriesModule</title>
<polygon fill="#8dd3c7" stroke="black" points="2056.92,-152.8 2053.92,-156.8 2032.92,-156.8 2029.92,-152.8 1937.08,-152.8 1937.08,-116.8 2056.92,-116.8 2056.92,-152.8"/>
<text text-anchor="middle" x="1997" y="-130.6" font-family="Times,serif" font-size="14.00">CategoriesModule</text>
</g>
<!-- CategoriesModule&#45;&gt;TransactionsModule -->
<g id="edge25" class="edge">
<title>CategoriesModule&#45;&gt;TransactionsModule</title>
<path fill="none" stroke="black" d="M1977.1,-153.11C1977.1,-172.95 1977.1,-201.8 1977.1,-201.8 1977.1,-201.8 1829.73,-201.8 1829.73,-201.8"/>
<polygon fill="black" stroke="black" points="1829.73,-198.3 1819.73,-201.8 1829.73,-205.3 1829.73,-198.3"/>
</g>
<!-- CategoriesModule&#45;&gt;AppModule -->
<g id="edge6" class="edge">
<title>CategoriesModule&#45;&gt;AppModule</title>
<path fill="none" stroke="black" d="M2016.9,-152.92C2016.9,-194.43 2016.9,-292.8 2016.9,-292.8 2016.9,-292.8 1847.81,-292.8 1847.81,-292.8"/>
<polygon fill="black" stroke="black" points="1847.81,-289.3 1837.81,-292.8 1847.81,-296.3 1847.81,-289.3"/>
</g>
<!-- CategoriesService  -->
<g id="node17" class="node">
<title>CategoriesService </title>
<polygon fill="#fb8072" stroke="black" points="3426.84,-228.8 3305.16,-228.8 3305.16,-192.8 3426.84,-192.8 3426.84,-228.8"/>
<text text-anchor="middle" x="3366" y="-206.6" font-family="Times,serif" font-size="14.00">CategoriesService </text>
</g>
<!-- CategoriesModule&#45;&gt;CategoriesService  -->
<g id="edge18" class="edge">
<title>CategoriesModule&#45;&gt;CategoriesService </title>
<path fill="none" stroke="black" stroke-dasharray="5,2" d="M2057.15,-128.8C2321.37,-128.8 3366,-128.8 3366,-128.8 3366,-128.8 3366,-182.6 3366,-182.6"/>
<polygon fill="black" stroke="black" points="3362.5,-182.6 3366,-192.6 3369.5,-182.6 3362.5,-182.6"/>
</g>
<!-- ConfigModule -->
<g id="node7" class="node">
<title>ConfigModule</title>
<polygon fill="#8dd3c7" stroke="black" points="1810.44,-152.8 1807.44,-156.8 1786.44,-156.8 1783.44,-152.8 1711.56,-152.8 1711.56,-116.8 1810.44,-116.8 1810.44,-152.8"/>
<text text-anchor="middle" x="1761" y="-130.6" font-family="Times,serif" font-size="14.00">ConfigModule</text>
</g>
<!-- ConfigModule&#45;&gt;AppModule -->
<g id="edge7" class="edge">
<title>ConfigModule&#45;&gt;AppModule</title>
<path fill="none" stroke="black" d="M1810.31,-140.8C1817.46,-140.8 1822.46,-140.8 1822.46,-140.8 1822.46,-140.8 1822.46,-258.6 1822.46,-258.6"/>
<polygon fill="black" stroke="black" points="1818.96,-258.6 1822.46,-268.6 1825.96,-258.6 1818.96,-258.6"/>
</g>
<!-- ConfigService  -->
<g id="node19" class="node">
<title>ConfigService </title>
<polygon fill="#fb8072" stroke="black" points="2355.37,-228.8 2254.63,-228.8 2254.63,-192.8 2355.37,-192.8 2355.37,-228.8"/>
<text text-anchor="middle" x="2305" y="-206.6" font-family="Times,serif" font-size="14.00">ConfigService </text>
</g>
<!-- ConfigModule&#45;&gt;ConfigService  -->
<g id="edge20" class="edge">
<title>ConfigModule&#45;&gt;ConfigService </title>
<path fill="none" stroke="black" stroke-dasharray="5,2" d="M1761,-152.95C1761,-166.54 1761,-182.8 1761,-182.8 1761,-182.8 2305,-182.8 2305,-182.8 2305,-182.8 2305,-183.78 2305,-183.78"/>
<polygon fill="black" stroke="black" points="2301.5,-182.59 2305,-192.59 2308.5,-182.59 2301.5,-182.59"/>
</g>
<!-- DatabaseModule -->
<g id="node8" class="node">
<title>DatabaseModule</title>
<polygon fill="#8dd3c7" stroke="black" points="1693.35,-152.8 1690.35,-156.8 1669.35,-156.8 1666.35,-152.8 1582.65,-152.8 1582.65,-116.8 1693.35,-116.8 1693.35,-152.8"/>
<text text-anchor="middle" x="1638" y="-130.6" font-family="Times,serif" font-size="14.00">DatabaseModule</text>
</g>
<!-- DatabaseModule&#45;&gt;AppModule -->
<g id="edge8" class="edge">
<title>DatabaseModule&#45;&gt;AppModule</title>
<path fill="none" stroke="black" d="M1679.62,-153.07C1679.62,-191.43 1679.62,-276.8 1679.62,-276.8 1679.62,-276.8 1744.31,-276.8 1744.31,-276.8"/>
<polygon fill="black" stroke="black" points="1744.31,-280.3 1754.31,-276.8 1744.31,-273.3 1744.31,-280.3"/>
</g>
<!-- TransactionsModule&#45;&gt;AppModule -->
<g id="edge10" class="edge">
<title>TransactionsModule&#45;&gt;AppModule</title>
<path fill="none" stroke="black" d="M1775.96,-228.81C1775.96,-228.81 1775.96,-258.65 1775.96,-258.65"/>
<polygon fill="black" stroke="black" points="1772.46,-258.65 1775.96,-268.65 1779.46,-258.65 1772.46,-258.65"/>
</g>
<!-- TransactionsService  -->
<g id="node23" class="node">
<title>TransactionsService </title>
<polygon fill="#fb8072" stroke="black" points="2432.51,-304.8 2299.49,-304.8 2299.49,-268.8 2432.51,-268.8 2432.51,-304.8"/>
<text text-anchor="middle" x="2366" y="-282.6" font-family="Times,serif" font-size="14.00">TransactionsService </text>
</g>
<!-- TransactionsModule&#45;&gt;TransactionsService  -->
<g id="edge27" class="edge">
<title>TransactionsModule&#45;&gt;TransactionsService </title>
<path fill="none" stroke="black" stroke-dasharray="5,2" d="M1797.75,-228.84C1797.75,-241.36 1797.75,-255.8 1797.75,-255.8 1797.75,-255.8 2327.34,-255.8 2327.34,-255.8 2327.34,-255.8 2327.34,-258.77 2327.34,-258.77"/>
<polygon fill="black" stroke="black" points="2323.84,-258.77 2327.34,-268.77 2330.84,-258.77 2323.84,-258.77"/>
</g>
<!-- UsersModule -->
<g id="node10" class="node">
<title>UsersModule</title>
<polygon fill="#8dd3c7" stroke="black" points="1919.92,-152.8 1916.92,-156.8 1895.92,-156.8 1892.92,-152.8 1828.08,-152.8 1828.08,-116.8 1919.92,-116.8 1919.92,-152.8"/>
<text text-anchor="middle" x="1874" y="-130.6" font-family="Times,serif" font-size="14.00">UsersModule</text>
</g>
<!-- UsersModule&#45;&gt;AuthModule -->
<g id="edge13" class="edge">
<title>UsersModule&#45;&gt;AuthModule</title>
<path fill="none" stroke="black" d="M1831.47,-153.04C1831.47,-168.37 1831.47,-187.8 1831.47,-187.8 1831.47,-187.8 1627,-187.8 1627,-187.8 1627,-187.8 1627,-188.29 1627,-188.29"/>
<polygon fill="black" stroke="black" points="1623.5,-182.68 1627,-192.68 1630.5,-182.68 1623.5,-182.68"/>
</g>
<!-- UsersModule&#45;&gt;AppModule -->
<g id="edge11" class="edge">
<title>UsersModule&#45;&gt;AppModule</title>
<path fill="none" stroke="black" d="M1834.65,-152.83C1834.65,-152.83 1834.65,-258.79 1834.65,-258.79"/>
<polygon fill="black" stroke="black" points="1831.15,-258.79 1834.65,-268.79 1838.15,-258.79 1831.15,-258.79"/>
</g>
<!-- UserRefreshTokensService  -->
<g id="node25" class="node">
<title>UserRefreshTokensService </title>
<polygon fill="#fb8072" stroke="black" points="2967.15,-228.8 2794.85,-228.8 2794.85,-192.8 2967.15,-192.8 2967.15,-228.8"/>
<text text-anchor="middle" x="2881" y="-206.6" font-family="Times,serif" font-size="14.00">UserRefreshTokensService </text>
</g>
<!-- UsersModule&#45;&gt;UserRefreshTokensService  -->
<g id="edge29" class="edge">
<title>UsersModule&#45;&gt;UserRefreshTokensService </title>
<path fill="none" stroke="black" stroke-dasharray="5,2" d="M1854.2,-152.91C1854.2,-162.7 1854.2,-172.8 1854.2,-172.8 1854.2,-172.8 2881,-172.8 2881,-172.8 2881,-172.8 2881,-182.69 2881,-182.69"/>
<polygon fill="black" stroke="black" points="2877.5,-182.69 2881,-192.69 2884.5,-182.69 2877.5,-182.69"/>
</g>
<!-- UsersService  -->
<g id="node26" class="node">
<title>UsersService </title>
<polygon fill="#fb8072" stroke="black" points="3078.85,-228.8 2985.15,-228.8 2985.15,-192.8 3078.85,-192.8 3078.85,-228.8"/>
<text text-anchor="middle" x="3032" y="-206.6" font-family="Times,serif" font-size="14.00">UsersService </text>
</g>
<!-- UsersModule&#45;&gt;UsersService  -->
<g id="edge30" class="edge">
<title>UsersModule&#45;&gt;UsersService </title>
<path fill="none" stroke="black" stroke-dasharray="5,2" d="M1870.58,-152.92C1870.58,-155.77 1870.58,-157.8 1870.58,-157.8 1870.58,-157.8 3032,-157.8 3032,-157.8 3032,-157.8 3032,-182.56 3032,-182.56"/>
<polygon fill="black" stroke="black" points="3028.5,-182.56 3032,-192.56 3035.5,-182.56 3028.5,-182.56"/>
</g>
<!-- SendGridModule -->
<g id="node12" class="node">
<title>SendGridModule</title>
<polygon fill="#8dd3c7" stroke="black" points="1520.7,-152.8 1517.7,-156.8 1496.7,-156.8 1493.7,-152.8 1407.3,-152.8 1407.3,-116.8 1520.7,-116.8 1520.7,-152.8"/>
<text text-anchor="middle" x="1464" y="-130.6" font-family="Times,serif" font-size="14.00">SendGridModule</text>
</g>
<!-- SendGridModule&#45;&gt;AuthModule -->
<g id="edge12" class="edge">
<title>SendGridModule&#45;&gt;AuthModule</title>
<path fill="none" stroke="black" d="M1464,-152.97C1464,-171.89 1464,-198.8 1464,-198.8 1464,-198.8 1573.32,-198.8 1573.32,-198.8"/>
<polygon fill="black" stroke="black" points="1573.32,-202.3 1583.32,-198.8 1573.32,-195.3 1573.32,-202.3"/>
</g>
<!-- AuthService -->
<g id="node14" class="node">
<title>AuthService</title>
<ellipse fill="#fdb462" stroke="black" cx="1210" cy="-134.8" rx="59.11" ry="18"/>
<text text-anchor="middle" x="1210" y="-130.6" font-family="Times,serif" font-size="14.00">AuthService</text>
</g>
<!-- AuthService&#45;&gt;AuthModule -->
<g id="edge15" class="edge">
<title>AuthService&#45;&gt;AuthModule</title>
<path fill="none" stroke="black" d="M1210,-152.81C1210,-175.29 1210,-210.8 1210,-210.8 1210,-210.8 1573.16,-210.8 1573.16,-210.8"/>
<polygon fill="black" stroke="black" points="1573.16,-214.3 1583.16,-210.8 1573.16,-207.3 1573.16,-214.3"/>
</g>
<!-- JwtRefreshTokenStrategy -->
<g id="node15" class="node">
<title>JwtRefreshTokenStrategy</title>
<ellipse fill="#fdb462" stroke="black" cx="1021" cy="-134.8" rx="111.15" ry="18"/>
<text text-anchor="middle" x="1021" y="-130.6" font-family="Times,serif" font-size="14.00">JwtRefreshTokenStrategy</text>
</g>
<!-- JwtRefreshTokenStrategy&#45;&gt;AuthModule -->
<g id="edge16" class="edge">
<title>JwtRefreshTokenStrategy&#45;&gt;AuthModule</title>
<path fill="none" stroke="black" d="M1021,-153C1021,-177.16 1021,-216.8 1021,-216.8 1021,-216.8 1573.42,-216.8 1573.42,-216.8"/>
<polygon fill="black" stroke="black" points="1573.42,-220.3 1583.42,-216.8 1573.42,-213.3 1573.42,-220.3"/>
</g>
<!-- JwtStrategy -->
<g id="node16" class="node">
<title>JwtStrategy</title>
<ellipse fill="#fdb462" stroke="black" cx="835" cy="-134.8" rx="56.76" ry="18"/>
<text text-anchor="middle" x="835" y="-130.6" font-family="Times,serif" font-size="14.00">JwtStrategy</text>
</g>
<!-- JwtStrategy&#45;&gt;AuthModule -->
<g id="edge17" class="edge">
<title>JwtStrategy&#45;&gt;AuthModule</title>
<path fill="none" stroke="black" d="M835,-153.03C835,-178.81 835,-222.8 835,-222.8 835,-222.8 1573.29,-222.8 1573.29,-222.8"/>
<polygon fill="black" stroke="black" points="1573.29,-226.3 1583.29,-222.8 1573.29,-219.3 1573.29,-226.3"/>
</g>
<!-- CategoriesService -->
<g id="node18" class="node">
<title>CategoriesService</title>
<ellipse fill="#fdb462" stroke="black" cx="3200" cy="-210.8" rx="81.07" ry="18"/>
<text text-anchor="middle" x="3200" y="-206.6" font-family="Times,serif" font-size="14.00">CategoriesService</text>
</g>
<!-- CategoriesService&#45;&gt;CategoriesModule -->
<g id="edge19" class="edge">
<title>CategoriesService&#45;&gt;CategoriesModule</title>
<path fill="none" stroke="black" d="M3200,-192.77C3200,-172.03 3200,-140.8 3200,-140.8 3200,-140.8 2067.07,-140.8 2067.07,-140.8"/>
<polygon fill="black" stroke="black" points="2067.07,-137.3 2057.07,-140.8 2067.07,-144.3 2067.07,-137.3"/>
</g>
<!-- ConfigService -->
<g id="node20" class="node">
<title>ConfigService</title>
<ellipse fill="#fdb462" stroke="black" cx="2164" cy="-210.8" rx="66.63" ry="18"/>
<text text-anchor="middle" x="2164" y="-206.6" font-family="Times,serif" font-size="14.00">ConfigService</text>
</g>
<!-- ConfigService&#45;&gt;ConfigModule -->
<g id="edge21" class="edge">
<title>ConfigService&#45;&gt;ConfigModule</title>
<path fill="none" stroke="black" d="M2097.1,-210.8C1998.41,-210.8 1825.37,-210.8 1825.37,-210.8 1825.37,-210.8 1825.37,-128.8 1825.37,-128.8 1825.37,-128.8 1820.44,-128.8 1820.44,-128.8"/>
<polygon fill="black" stroke="black" points="1820.44,-125.3 1810.44,-128.8 1820.44,-132.3 1820.44,-125.3"/>
</g>
<!-- ExchangeRateService -->
<g id="node22" class="node">
<title>ExchangeRateService</title>
<ellipse fill="#fdb462" stroke="black" cx="120" cy="-134.8" rx="95.53" ry="18"/>
<text text-anchor="middle" x="120" y="-130.6" font-family="Times,serif" font-size="14.00">ExchangeRateService</text>
</g>
<!-- ExchangeRateService&#45;&gt;ExchangeRateModule -->
<g id="edge23" class="edge">
<title>ExchangeRateService&#45;&gt;ExchangeRateModule</title>
<path fill="none" stroke="black" d="M120,-116.58C120,-96.43 120,-66.8 120,-66.8 120,-66.8 411.59,-66.8 411.59,-66.8"/>
<polygon fill="black" stroke="black" points="411.59,-70.3 421.59,-66.8 411.59,-63.3 411.59,-70.3"/>
</g>
<!-- TransactionsService -->
<g id="node24" class="node">
<title>TransactionsService</title>
<ellipse fill="#fdb462" stroke="black" cx="2186" cy="-286.8" rx="89.16" ry="18"/>
<text text-anchor="middle" x="2186" y="-282.6" font-family="Times,serif" font-size="14.00">TransactionsService</text>
</g>
<!-- TransactionsService&#45;&gt;TransactionsModule -->
<g id="edge28" class="edge">
<title>TransactionsService&#45;&gt;TransactionsModule</title>
<path fill="none" stroke="black" d="M2101.77,-280.8C2087.23,-280.8 2076.69,-280.8 2076.69,-280.8 2076.69,-280.8 2076.69,-219.8 2076.69,-219.8 2076.69,-219.8 1829.69,-219.8 1829.69,-219.8"/>
<polygon fill="black" stroke="black" points="1829.69,-216.3 1819.69,-219.8 1829.69,-223.3 1829.69,-216.3"/>
</g>
<!-- UserRefreshTokensService -->
<g id="node27" class="node">
<title>UserRefreshTokensService</title>
<ellipse fill="#fdb462" stroke="black" cx="2512" cy="-210.8" rx="116.85" ry="18"/>
<text text-anchor="middle" x="2512" y="-206.6" font-family="Times,serif" font-size="14.00">UserRefreshTokensService</text>
</g>
<!-- UserRefreshTokensService&#45;&gt;UsersModule -->
<g id="edge31" class="edge">
<title>UserRefreshTokensService&#45;&gt;UsersModule</title>
<path fill="none" stroke="black" d="M2413.91,-220.57C2413.91,-229.99 2413.91,-242.8 2413.91,-242.8 2413.91,-242.8 1903.33,-242.8 1903.33,-242.8 1903.33,-242.8 1903.33,-163.12 1903.33,-163.12"/>
<polygon fill="black" stroke="black" points="1906.83,-163.12 1903.33,-153.12 1899.83,-163.12 1906.83,-163.12"/>
</g>
<!-- UsersService -->
<g id="node28" class="node">
<title>UsersService</title>
<ellipse fill="#fdb462" stroke="black" cx="2709" cy="-210.8" rx="61.95" ry="18"/>
<text text-anchor="middle" x="2709" y="-206.6" font-family="Times,serif" font-size="14.00">UsersService</text>
</g>
<!-- UsersService&#45;&gt;UsersModule -->
<g id="edge32" class="edge">
<title>UsersService&#45;&gt;UsersModule</title>
<path fill="none" stroke="black" d="M2709,-192.76C2709,-185.05 2709,-177.8 2709,-177.8 2709,-177.8 1886.96,-177.8 1886.96,-177.8 1886.96,-177.8 1886.96,-163.29 1886.96,-163.29"/>
<polygon fill="black" stroke="black" points="1890.46,-163.29 1886.96,-153.29 1883.46,-163.29 1890.46,-163.29"/>
</g>
</g>
</svg>
