<?xml version="1.0" encoding="UTF-8" standalone="no"?>
<!DOCTYPE svg PUBLIC "-//W3C//DTD SVG 1.1//EN"
 "http://www.w3.org/Graphics/SVG/1.1/DTD/svg11.dtd">
<!-- Generated by graphviz version 2.47.3 (20210619.1520)
 -->
<!-- Title: dependencies Pages: 1 -->
<svg width="432pt" height="247pt"
 viewBox="0.00 0.00 432.00 246.80" xmlns="http://www.w3.org/2000/svg" xmlns:xlink="http://www.w3.org/1999/xlink">
<g id="graph0" class="graph" transform="scale(1 1) rotate(0) translate(4 242.8)">
<title>dependencies</title>
<polygon fill="white" stroke="transparent" points="-4,4 -4,-242.8 428,-242.8 428,4 -4,4"/>
<text text-anchor="middle" x="212" y="-8.2" font-family="sans-serif" font-size="14.00">dependencies</text>
<g id="clust1" class="cluster">
<title>cluster_UsersModule</title>
<polygon fill="none" stroke="black" stroke-dasharray="1,5" points="8,-32.8 8,-230.8 416,-230.8 416,-32.8 8,-32.8"/>
</g>
<g id="clust4" class="cluster">
<title>cluster_UsersModule_exports</title>
<polygon fill="none" stroke="black" points="43,-170.8 43,-222.8 343,-222.8 343,-170.8 43,-170.8"/>
</g>
<g id="clust6" class="cluster">
<title>cluster_UsersModule_providers</title>
<polygon fill="none" stroke="black" points="16,-40.8 16,-92.8 408,-92.8 408,-40.8 16,-40.8"/>
</g>
<!-- UserRefreshTokensService  -->
<g id="node1" class="node">
<title>UserRefreshTokensService </title>
<polygon fill="#fb8072" stroke="black" points="335.15,-214.8 162.85,-214.8 162.85,-178.8 335.15,-178.8 335.15,-214.8"/>
<text text-anchor="middle" x="249" y="-192.6" font-family="Times,serif" font-size="14.00">UserRefreshTokensService </text>
</g>
<!-- UsersService  -->
<g id="node2" class="node">
<title>UsersService </title>
<polygon fill="#fb8072" stroke="black" points="144.85,-214.8 51.15,-214.8 51.15,-178.8 144.85,-178.8 144.85,-214.8"/>
<text text-anchor="middle" x="98" y="-192.6" font-family="Times,serif" font-size="14.00">UsersService </text>
</g>
<!-- UsersModule -->
<g id="node3" class="node">
<title>UsersModule</title>
<polygon fill="#8dd3c7" stroke="black" points="169.92,-149.8 166.92,-153.8 145.92,-153.8 142.92,-149.8 78.08,-149.8 78.08,-113.8 169.92,-113.8 169.92,-149.8"/>
<text text-anchor="middle" x="124" y="-127.6" font-family="Times,serif" font-size="14.00">UsersModule</text>
</g>
<!-- UsersModule&#45;&gt;UserRefreshTokensService  -->
<g id="edge1" class="edge">
<title>UsersModule&#45;&gt;UserRefreshTokensService </title>
<path fill="none" stroke="black" stroke-dasharray="5,2" d="M166.19,-149.91C166.19,-149.91 166.19,-168.79 166.19,-168.79"/>
<polygon fill="black" stroke="black" points="162.69,-168.79 166.19,-178.79 169.69,-168.79 162.69,-168.79"/>
</g>
<!-- UsersModule&#45;&gt;UsersService  -->
<g id="edge2" class="edge">
<title>UsersModule&#45;&gt;UsersService </title>
<path fill="none" stroke="black" stroke-dasharray="5,2" d="M111.48,-149.91C111.48,-149.91 111.48,-168.79 111.48,-168.79"/>
<polygon fill="black" stroke="black" points="107.98,-168.79 111.48,-178.79 114.98,-168.79 107.98,-168.79"/>
</g>
<!-- UserRefreshTokensService -->
<g id="node4" class="node">
<title>UserRefreshTokensService</title>
<ellipse fill="#fdb462" stroke="black" cx="283" cy="-66.8" rx="116.85" ry="18"/>
<text text-anchor="middle" x="283" y="-62.6" font-family="Times,serif" font-size="14.00">UserRefreshTokensService</text>
</g>
<!-- UserRefreshTokensService&#45;&gt;UsersModule -->
<g id="edge3" class="edge">
<title>UserRefreshTokensService&#45;&gt;UsersModule</title>
<path fill="none" stroke="black" d="M166.2,-66.8C160.54,-66.8 157.15,-66.8 157.15,-66.8 157.15,-66.8 157.15,-103.69 157.15,-103.69"/>
<polygon fill="black" stroke="black" points="153.65,-103.69 157.15,-113.69 160.65,-103.69 153.65,-103.69"/>
</g>
<!-- UsersService -->
<g id="node5" class="node">
<title>UsersService</title>
<ellipse fill="#fdb462" stroke="black" cx="86" cy="-66.8" rx="61.95" ry="18"/>
<text text-anchor="middle" x="86" y="-62.6" font-family="Times,serif" font-size="14.00">UsersService</text>
</g>
<!-- UsersService&#45;&gt;UsersModule -->
<g id="edge4" class="edge">
<title>UsersService&#45;&gt;UsersModule</title>
<path fill="none" stroke="black" d="M113.13,-83.2C113.13,-83.2 113.13,-103.34 113.13,-103.34"/>
<polygon fill="black" stroke="black" points="109.63,-103.34 113.13,-113.34 116.63,-103.34 109.63,-103.34"/>
</g>
</g>
</svg>
