<?xml version="1.0" encoding="UTF-8" standalone="no"?>
<!DOCTYPE svg PUBLIC "-//W3C//DTD SVG 1.1//EN"
 "http://www.w3.org/Graphics/SVG/1.1/DTD/svg11.dtd">
<!-- Generated by graphviz version 2.47.3 (20210619.1520)
 -->
<!-- Title: dependencies Pages: 1 -->
<svg width="1074pt" height="174pt"
 viewBox="0.00 0.00 1074.00 173.80" xmlns="http://www.w3.org/2000/svg" xmlns:xlink="http://www.w3.org/1999/xlink">
<g id="graph0" class="graph" transform="scale(1 1) rotate(0) translate(4 169.8)">
<title>dependencies</title>
<polygon fill="white" stroke="transparent" points="-4,4 -4,-169.8 1070,-169.8 1070,4 -4,4"/>
<text text-anchor="middle" x="533" y="-8.2" font-family="sans-serif" font-size="14.00">dependencies</text>
<g id="clust1" class="cluster">
<title>cluster_AppModule</title>
<polygon fill="none" stroke="black" stroke-dasharray="1,5" points="8,-32.8 8,-157.8 1058,-157.8 1058,-32.8 8,-32.8"/>
</g>
<g id="clust3" class="cluster">
<title>cluster_AppModule_imports</title>
<polygon fill="none" stroke="black" points="16,-40.8 16,-92.8 1050,-92.8 1050,-40.8 16,-40.8"/>
</g>
<!-- AccountsModule -->
<g id="node1" class="node">
<title>AccountsModule</title>
<polygon fill="#8dd3c7" stroke="black" points="1042.42,-84.8 1039.42,-88.8 1018.42,-88.8 1015.42,-84.8 929.58,-84.8 929.58,-48.8 1042.42,-48.8 1042.42,-84.8"/>
<text text-anchor="middle" x="986" y="-62.6" font-family="Times,serif" font-size="14.00">AccountsModule</text>
</g>
<!-- AppModule -->
<g id="node9" class="node">
<title>AppModule</title>
<polygon fill="#8dd3c7" stroke="black" points="599.66,-149.8 596.66,-153.8 575.66,-153.8 572.66,-149.8 516.34,-149.8 516.34,-113.8 599.66,-113.8 599.66,-149.8"/>
<text text-anchor="middle" x="558" y="-127.6" font-family="Times,serif" font-size="14.00">AppModule</text>
</g>
<!-- AccountsModule&#45;&gt;AppModule -->
<g id="edge1" class="edge">
<title>AccountsModule&#45;&gt;AppModule</title>
<path fill="none" stroke="black" d="M986,-85.09C986,-107.01 986,-140.8 986,-140.8 986,-140.8 609.82,-140.8 609.82,-140.8"/>
<polygon fill="black" stroke="black" points="609.82,-137.3 599.82,-140.8 609.82,-144.3 609.82,-137.3"/>
</g>
<!-- AuthModule -->
<g id="node2" class="node">
<title>AuthModule</title>
<polygon fill="#8dd3c7" stroke="black" points="911.55,-84.8 908.55,-88.8 887.55,-88.8 884.55,-84.8 824.45,-84.8 824.45,-48.8 911.55,-48.8 911.55,-84.8"/>
<text text-anchor="middle" x="868" y="-62.6" font-family="Times,serif" font-size="14.00">AuthModule</text>
</g>
<!-- AuthModule&#45;&gt;AppModule -->
<g id="edge2" class="edge">
<title>AuthModule&#45;&gt;AppModule</title>
<path fill="none" stroke="black" d="M868,-84.91C868,-104.14 868,-131.8 868,-131.8 868,-131.8 609.81,-131.8 609.81,-131.8"/>
<polygon fill="black" stroke="black" points="609.81,-128.3 599.81,-131.8 609.81,-135.3 609.81,-128.3"/>
</g>
<!-- CategoriesModule -->
<g id="node3" class="node">
<title>CategoriesModule</title>
<polygon fill="#8dd3c7" stroke="black" points="806.92,-84.8 803.92,-88.8 782.92,-88.8 779.92,-84.8 687.08,-84.8 687.08,-48.8 806.92,-48.8 806.92,-84.8"/>
<text text-anchor="middle" x="747" y="-62.6" font-family="Times,serif" font-size="14.00">CategoriesModule</text>
</g>
<!-- CategoriesModule&#45;&gt;AppModule -->
<g id="edge3" class="edge">
<title>CategoriesModule&#45;&gt;AppModule</title>
<path fill="none" stroke="black" d="M747,-84.83C747,-101.2 747,-122.8 747,-122.8 747,-122.8 609.95,-122.8 609.95,-122.8"/>
<polygon fill="black" stroke="black" points="609.95,-119.3 599.95,-122.8 609.95,-126.3 609.95,-119.3"/>
</g>
<!-- ConfigModule -->
<g id="node4" class="node">
<title>ConfigModule</title>
<polygon fill="#8dd3c7" stroke="black" points="669.44,-84.8 666.44,-88.8 645.44,-88.8 642.44,-84.8 570.56,-84.8 570.56,-48.8 669.44,-48.8 669.44,-84.8"/>
<text text-anchor="middle" x="620" y="-62.6" font-family="Times,serif" font-size="14.00">ConfigModule</text>
</g>
<!-- ConfigModule&#45;&gt;AppModule -->
<g id="edge4" class="edge">
<title>ConfigModule&#45;&gt;AppModule</title>
<path fill="none" stroke="black" d="M585.3,-84.91C585.3,-84.91 585.3,-103.79 585.3,-103.79"/>
<polygon fill="black" stroke="black" points="581.8,-103.79 585.3,-113.79 588.8,-103.79 581.8,-103.79"/>
</g>
<!-- DatabaseModule -->
<g id="node5" class="node">
<title>DatabaseModule</title>
<polygon fill="#8dd3c7" stroke="black" points="552.35,-84.8 549.35,-88.8 528.35,-88.8 525.35,-84.8 441.65,-84.8 441.65,-48.8 552.35,-48.8 552.35,-84.8"/>
<text text-anchor="middle" x="497" y="-62.6" font-family="Times,serif" font-size="14.00">DatabaseModule</text>
</g>
<!-- DatabaseModule&#45;&gt;AppModule -->
<g id="edge5" class="edge">
<title>DatabaseModule&#45;&gt;AppModule</title>
<path fill="none" stroke="black" d="M534.3,-84.91C534.3,-84.91 534.3,-103.79 534.3,-103.79"/>
<polygon fill="black" stroke="black" points="530.8,-103.79 534.3,-113.79 537.8,-103.79 530.8,-103.79"/>
</g>
<!-- ExchangeRateModule -->
<g id="node6" class="node">
<title>ExchangeRateModule</title>
<polygon fill="#8dd3c7" stroke="black" points="423.4,-84.8 420.4,-88.8 399.4,-88.8 396.4,-84.8 282.6,-84.8 282.6,-48.8 423.4,-48.8 423.4,-84.8"/>
<text text-anchor="middle" x="353" y="-62.6" font-family="Times,serif" font-size="14.00">ExchangeRateModule</text>
</g>
<!-- ExchangeRateModule&#45;&gt;AppModule -->
<g id="edge6" class="edge">
<title>ExchangeRateModule&#45;&gt;AppModule</title>
<path fill="none" stroke="black" d="M353,-84.83C353,-101.2 353,-122.8 353,-122.8 353,-122.8 506.02,-122.8 506.02,-122.8"/>
<polygon fill="black" stroke="black" points="506.02,-126.3 516.02,-122.8 506.02,-119.3 506.02,-126.3"/>
</g>
<!-- TransactionsModule -->
<g id="node7" class="node">
<title>TransactionsModule</title>
<polygon fill="#8dd3c7" stroke="black" points="264.58,-84.8 261.58,-88.8 240.58,-88.8 237.58,-84.8 133.42,-84.8 133.42,-48.8 264.58,-48.8 264.58,-84.8"/>
<text text-anchor="middle" x="199" y="-62.6" font-family="Times,serif" font-size="14.00">TransactionsModule</text>
</g>
<!-- TransactionsModule&#45;&gt;AppModule -->
<g id="edge7" class="edge">
<title>TransactionsModule&#45;&gt;AppModule</title>
<path fill="none" stroke="black" d="M199,-84.91C199,-104.14 199,-131.8 199,-131.8 199,-131.8 506.12,-131.8 506.12,-131.8"/>
<polygon fill="black" stroke="black" points="506.12,-135.3 516.12,-131.8 506.12,-128.3 506.12,-135.3"/>
</g>
<!-- UsersModule -->
<g id="node8" class="node">
<title>UsersModule</title>
<polygon fill="#8dd3c7" stroke="black" points="115.92,-84.8 112.92,-88.8 91.92,-88.8 88.92,-84.8 24.08,-84.8 24.08,-48.8 115.92,-48.8 115.92,-84.8"/>
<text text-anchor="middle" x="70" y="-62.6" font-family="Times,serif" font-size="14.00">UsersModule</text>
</g>
<!-- UsersModule&#45;&gt;AppModule -->
<g id="edge8" class="edge">
<title>UsersModule&#45;&gt;AppModule</title>
<path fill="none" stroke="black" d="M70,-85.09C70,-107.01 70,-140.8 70,-140.8 70,-140.8 505.97,-140.8 505.97,-140.8"/>
<polygon fill="black" stroke="black" points="505.97,-144.3 515.97,-140.8 505.97,-137.3 505.97,-144.3"/>
</g>
</g>
</svg>
