<?xml version="1.0" encoding="UTF-8" standalone="no"?>
<!DOCTYPE svg PUBLIC "-//W3C//DTD SVG 1.1//EN"
 "http://www.w3.org/Graphics/SVG/1.1/DTD/svg11.dtd">
<!-- Generated by graphviz version 2.47.3 (20210619.1520)
 -->
<!-- Title: dependencies Pages: 1 -->
<svg width="666pt" height="247pt"
 viewBox="0.00 0.00 666.00 246.80" xmlns="http://www.w3.org/2000/svg" xmlns:xlink="http://www.w3.org/1999/xlink">
<g id="graph0" class="graph" transform="scale(1 1) rotate(0) translate(4 242.8)">
<title>dependencies</title>
<polygon fill="white" stroke="transparent" points="-4,4 -4,-242.8 662,-242.8 662,4 -4,4"/>
<text text-anchor="middle" x="329" y="-8.2" font-family="sans-serif" font-size="14.00">dependencies</text>
<g id="clust1" class="cluster">
<title>cluster_TransactionsModule</title>
<polygon fill="none" stroke="black" stroke-dasharray="1,5" points="8,-32.8 8,-230.8 650,-230.8 650,-32.8 8,-32.8"/>
</g>
<g id="clust6" class="cluster">
<title>cluster_TransactionsModule_providers</title>
<polygon fill="none" stroke="black" points="448,-40.8 448,-92.8 642,-92.8 642,-40.8 448,-40.8"/>
</g>
<g id="clust3" class="cluster">
<title>cluster_TransactionsModule_imports</title>
<polygon fill="none" stroke="black" points="16,-40.8 16,-92.8 440,-92.8 440,-40.8 16,-40.8"/>
</g>
<g id="clust4" class="cluster">
<title>cluster_TransactionsModule_exports</title>
<polygon fill="none" stroke="black" points="234,-170.8 234,-222.8 384,-222.8 384,-170.8 234,-170.8"/>
</g>
<!-- AccountsModule -->
<g id="node1" class="node">
<title>AccountsModule</title>
<polygon fill="#8dd3c7" stroke="black" points="432.42,-84.8 429.42,-88.8 408.42,-88.8 405.42,-84.8 319.58,-84.8 319.58,-48.8 432.42,-48.8 432.42,-84.8"/>
<text text-anchor="middle" x="376" y="-62.6" font-family="Times,serif" font-size="14.00">AccountsModule</text>
</g>
<!-- TransactionsModule -->
<g id="node4" class="node">
<title>TransactionsModule</title>
<polygon fill="#8dd3c7" stroke="black" points="374.58,-149.8 371.58,-153.8 350.58,-153.8 347.58,-149.8 243.42,-149.8 243.42,-113.8 374.58,-113.8 374.58,-149.8"/>
<text text-anchor="middle" x="309" y="-127.6" font-family="Times,serif" font-size="14.00">TransactionsModule</text>
</g>
<!-- AccountsModule&#45;&gt;TransactionsModule -->
<g id="edge1" class="edge">
<title>AccountsModule&#45;&gt;TransactionsModule</title>
<path fill="none" stroke="black" d="M347.16,-84.91C347.16,-84.91 347.16,-103.79 347.16,-103.79"/>
<polygon fill="black" stroke="black" points="343.66,-103.79 347.16,-113.79 350.66,-103.79 343.66,-103.79"/>
</g>
<!-- CategoriesModule -->
<g id="node2" class="node">
<title>CategoriesModule</title>
<polygon fill="#8dd3c7" stroke="black" points="301.92,-84.8 298.92,-88.8 277.92,-88.8 274.92,-84.8 182.08,-84.8 182.08,-48.8 301.92,-48.8 301.92,-84.8"/>
<text text-anchor="middle" x="242" y="-62.6" font-family="Times,serif" font-size="14.00">CategoriesModule</text>
</g>
<!-- CategoriesModule&#45;&gt;TransactionsModule -->
<g id="edge2" class="edge">
<title>CategoriesModule&#45;&gt;TransactionsModule</title>
<path fill="none" stroke="black" d="M272.58,-84.91C272.58,-84.91 272.58,-103.79 272.58,-103.79"/>
<polygon fill="black" stroke="black" points="269.08,-103.79 272.58,-113.79 276.08,-103.79 269.08,-103.79"/>
</g>
<!-- ExchangeRateModule -->
<g id="node3" class="node">
<title>ExchangeRateModule</title>
<polygon fill="#8dd3c7" stroke="black" points="164.4,-84.8 161.4,-88.8 140.4,-88.8 137.4,-84.8 23.6,-84.8 23.6,-48.8 164.4,-48.8 164.4,-84.8"/>
<text text-anchor="middle" x="94" y="-62.6" font-family="Times,serif" font-size="14.00">ExchangeRateModule</text>
</g>
<!-- ExchangeRateModule&#45;&gt;TransactionsModule -->
<g id="edge3" class="edge">
<title>ExchangeRateModule&#45;&gt;TransactionsModule</title>
<path fill="none" stroke="black" d="M94,-84.91C94,-104.14 94,-131.8 94,-131.8 94,-131.8 233.32,-131.8 233.32,-131.8"/>
<polygon fill="black" stroke="black" points="233.32,-135.3 243.32,-131.8 233.32,-128.3 233.32,-135.3"/>
</g>
<!-- TransactionsService  -->
<g id="node5" class="node">
<title>TransactionsService </title>
<polygon fill="#fb8072" stroke="black" points="375.51,-214.8 242.49,-214.8 242.49,-178.8 375.51,-178.8 375.51,-214.8"/>
<text text-anchor="middle" x="309" y="-192.6" font-family="Times,serif" font-size="14.00">TransactionsService </text>
</g>
<!-- TransactionsModule&#45;&gt;TransactionsService  -->
<g id="edge4" class="edge">
<title>TransactionsModule&#45;&gt;TransactionsService </title>
<path fill="none" stroke="black" stroke-dasharray="5,2" d="M309,-149.91C309,-149.91 309,-168.79 309,-168.79"/>
<polygon fill="black" stroke="black" points="305.5,-168.79 309,-178.79 312.5,-168.79 305.5,-168.79"/>
</g>
<!-- TransactionsService -->
<g id="node6" class="node">
<title>TransactionsService</title>
<ellipse fill="#fdb462" stroke="black" cx="545" cy="-66.8" rx="89.16" ry="18"/>
<text text-anchor="middle" x="545" y="-62.6" font-family="Times,serif" font-size="14.00">TransactionsService</text>
</g>
<!-- TransactionsService&#45;&gt;TransactionsModule -->
<g id="edge5" class="edge">
<title>TransactionsService&#45;&gt;TransactionsModule</title>
<path fill="none" stroke="black" d="M545,-84.91C545,-104.14 545,-131.8 545,-131.8 545,-131.8 384.74,-131.8 384.74,-131.8"/>
<polygon fill="black" stroke="black" points="384.74,-128.3 374.74,-131.8 384.74,-135.3 384.74,-128.3"/>
</g>
</g>
</svg>
